#define earth_width 64
#define earth_height 64
static unsigned char earth_bits[] = {
   0x00, 0x00, 0x00, 0x00, 0x00, 0x00, 0x00, 0x00, 0x00, 0x00, 0x00, 0x00,
   0x00, 0x00, 0x00, 0x00, 0x00, 0x00, 0x00, 0x00, 0x00, 0x00, 0x00, 0x00,
   0x00, 0x00, 0x00, 0x00, 0x00, 0x00, 0x00, 0x00, 0x00, 0x00, 0x00, 0xf8,
   0x3f, 0x00, 0x00, 0x00, 0x00, 0x00, 0x00, 0xff, 0xff, 0x01, 0x00, 0x00,
   0x00, 0x00, 0xe0, 0xff, 0xff, 0x0f, 0x00, 0x00, 0x00, 0x00, 0xf8, 0x3f,
   0xff, 0x3f, 0x00, 0x00, 0x00, 0x00, 0xfc, 0xff, 0xfd, 0x7f, 0x00, 0x00,
   0x00, 0x00, 0xff, 0x3f, 0xc0, 0xff, 0x01, 0x00, 0x00, 0x80, 0xff, 0x3f,
   0x00, 0xff, 0x03, 0x00, 0x00, 0xc0, 0xff, 0x3f, 0x00, 0xfe, 0x07, 0x00,
   0x00, 0xe0, 0xff, 0x1f, 0xc0, 0xe0, 0x0f, 0x00, 0x00, 0xf0, 0xff, 0x07,
   0xc0, 0x81, 0x1f, 0x00, 0x00, 0xe8, 0xbf, 0x0f, 0xc0, 0x07, 0x3f, 0x00,
   0x00, 0xa4, 0xef, 0x0f, 0xe0, 0x0f, 0x78, 0x00, 0x00, 0xb4, 0x3b, 0x0e,
   0xe0, 0x0f, 0x78, 0x00, 0x00, 0x1a, 0x0c, 0x44, 0xd0, 0x3f, 0x80, 0x00,
   0x00, 0x19, 0x04, 0xfc, 0x33, 0xfe, 0x00, 0x01, 0x00, 0x09, 0x02, 0xf8,
   0xff, 0xf0, 0x00, 0x01, 0x80, 0x80, 0x81, 0xff, 0xff, 0x01, 0x30, 0x02,
   0x80, 0x00, 0x00, 0xff, 0xff, 0x4f, 0x3c, 0x02, 0x80, 0x00, 0xc0, 0xff,
   0xff, 0xc4, 0x1f, 0x02, 0x40, 0x00, 0xc1, 0xff, 0xff, 0xc0, 0x1f, 0x04,
   0x40, 0x00, 0xc0, 0xff, 0xff, 0xf1, 0x0f, 0x04, 0x40, 0x00, 0x04, 0xff,
   0xff, 0xe7, 0x0f, 0x04, 0x20, 0x00, 0x10, 0xc6, 0xff, 0xff, 0x1f, 0x08,
   0x20, 0x00, 0x60, 0x83, 0xff, 0xff, 0x1f, 0x08, 0x20, 0x00, 0x80, 0x00,
   0xff, 0xff, 0x1f, 0x08, 0x20, 0x00, 0x00, 0x00, 0xff, 0xff, 0x1f, 0x08,
   0x20, 0x00, 0x00, 0x00, 0xff, 0xff, 0x1f, 0x08, 0x20, 0x00, 0x00, 0x00,
   0xff, 0xff, 0x0f, 0x08, 0x20, 0x00, 0x00, 0x00, 0xff, 0xff, 0x0f, 0x08,
   0x20, 0x00, 0x00, 0x00, 0xfe, 0xff, 0x0f, 0x08, 0x20, 0x00, 0x00, 0x00,
   0xfe, 0x4f, 0x08, 0x08, 0x20, 0x00, 0x00, 0x00, 0xfc, 0x07, 0x08, 0x08,
   0x20, 0x40, 0x00, 0x00, 0xfc, 0x07, 0x88, 0x08, 0x40, 0x80, 0x00, 0x00,
   0xe8, 0x0f, 0x60, 0x04, 0x40, 0x00, 0x01, 0x00, 0xd0, 0x8f, 0x1b, 0x04,
   0x40, 0x00, 0x02, 0x00, 0x20, 0x8f, 0xc3, 0x07, 0x80, 0x00, 0x02, 0x00,
   0x40, 0xfc, 0xf1, 0x03, 0x80, 0x00, 0x04, 0x00, 0x00, 0xf0, 0xf1, 0x03,
   0x80, 0x00, 0x00, 0x00, 0x00, 0x80, 0xff, 0x03, 0x00, 0x01, 0x00, 0x00,
   0x00, 0x00, 0xfc, 0x01, 0x00, 0x01, 0xf8, 0x73, 0xf8, 0x03, 0xfc, 0x01,
   0x00, 0x02, 0x40, 0x90, 0x40, 0x00, 0xff, 0x00, 0x00, 0x04, 0x40, 0x10,
   0x41, 0x80, 0x7f, 0x00, 0x00, 0x04, 0x40, 0x10, 0x41, 0x80, 0x7f, 0x00,
   0x00, 0x08, 0x40, 0x10, 0x41, 0x80, 0x3f, 0x00, 0x00, 0x10, 0x40, 0x10,
   0x41, 0x80, 0x1f, 0x00, 0x00, 0x20, 0x40, 0x10, 0x41, 0x00, 0x0e, 0x00,
   0x00, 0x40, 0x40, 0x90, 0x40, 0x00, 0x07, 0x00, 0x00, 0x80, 0xf8, 0x73,
   0x40, 0x00, 0x03, 0x00, 0x00, 0x00, 0x03, 0x00, 0x00, 0x80, 0x01, 0x00,
   0x00, 0x00, 0x04, 0x00, 0x00, 0x40, 0x00, 0x00, 0x00, 0x00, 0x18, 0x00,
   0x00, 0x30, 0x00, 0x00, 0x00, 0x00, 0xe0, 0x00, 0x00, 0x0e, 0x00, 0x00,
   0x00, 0x00, 0x00, 0x07, 0xc0, 0x01, 0x00, 0x00, 0x00, 0x00, 0x00, 0xf8,
   0x3f, 0x00, 0x00, 0x00, 0x00, 0x00, 0x00, 0x00, 0x00, 0x00, 0x00, 0x00,
   0x00, 0x00, 0x00, 0x00, 0x00, 0x00, 0x00, 0x00, 0x00, 0x00, 0x00, 0x00,
   0x00, 0x00, 0x00, 0x00, 0x00, 0x00, 0x00, 0x00, 0x00, 0x00, 0x00, 0x00,
   0x00, 0x00, 0x00, 0x00, 0x00, 0x00, 0x00, 0x00};
