/* XPM */
static char * xterm_xpm [] = {
/* width height ncolors cpp [x_hot y_hot] */
"32 32 4 1 0 0",
/* colors */
".	s Background	m none	c none",
"a	s Foreground	m white	c #e1e1e1e1e1e1",
"b	s BottomShadow	m black	c #323232323232",
"c	s TopShadow	m black	c #646464646464",
/* pixels */
"................................",
"................................",
"................................",
".......aaaaaaaaaaaaaaaaa........",
"......aaaaaaaaaaaaaaaaaaab......",
".....aaaaaaaaaaaaaaaaaaaaab.....",
".....aaccccccccccccccccccab.....",
".....aacbbbbbbbbbbbbbbbbaab.....",
".....aacbbbaabbbbbbbabbbaab.....",
".....aacbbbbaabbbbbabbbbaab.....",
".....aacbbbbbaabbbabbbbbaab.....",
".....aacbbbbbbaababbbbbbaab.....",
".....aacbbbbbbbaabbbbbbbaab.....",
".....aacbbbbbbabaabbbbbbaab.....",
".....aacbbbbbabbbaabbbbbaab.....",
".....aacbbbbabbbbbaabbbbaab.....",
".....aacbbbabbbbbbbaabbbaab.....",
".....aacbbbbbbbbbbbbbbbbaab.....",
".....aacaaaaaaaaaaaaaaaaaab.....",
".....aaaaaaaaaaaaaaaaaaaaab.....",
"......bbbbbbbbbbbbbbbbbbbb......",
".........bbccccccccccbb.........",
".........bbbccccccccbbb.........",
"....ccccccccccccccccccccccccb...",
"...aaacacacacacacacacaacacacab..",
"..aaacacacacacacacacacaacacaaab.",
".aaaaaaaaaaaaaaaaaaaaaaaaaaaaaab",
".ccccccccccccccccccccccccccccccb",
".bbbbbbbbbbbbbbbbbbbbbbbbbbbbbbb",
"................................",
"................................",
"................................"};
